<svg width="190" height="43" viewBox="0 0 190 43" fill="none" xmlns="http://www.w3.org/2000/svg">
<g clip-path="url(#clip0_689_380671)">
<path d="M52.8588 13.823C52.3117 13.112 51.6183 12.5649 50.78 12.1816C49.9403 11.7984 49.0743 11.6068 48.1817 11.6068C47.0874 11.6068 46.0978 11.811 45.2141 12.222C44.3291 12.633 43.5726 13.1927 42.9436 13.905C42.3157 14.616 41.8266 15.4506 41.4812 16.4074C41.1345 17.3656 40.9605 18.3905 40.9605 19.4848C40.9605 20.5059 41.1244 21.4729 41.4522 22.3843C41.7799 23.2958 42.2552 24.0976 42.8742 24.791C43.4945 25.4844 44.2521 26.0315 45.1447 26.4324C46.0373 26.8346 47.0496 27.0337 48.1804 27.0337C49.3113 27.0337 50.2694 26.8056 51.1077 26.3505C51.9461 25.8953 52.6571 25.2562 53.2408 24.4367L55.4571 26.1046C55.3109 26.3051 55.0562 26.5925 54.6919 26.9669C54.3263 27.3413 53.8434 27.7145 53.2421 28.0877C52.6407 28.4621 51.9158 28.7899 51.0687 29.0735C50.2202 29.3559 49.2394 29.4971 48.1275 29.4971C46.5958 29.4971 45.2153 29.2046 43.9836 28.6222C42.7532 28.0385 41.7043 27.2733 40.8382 26.324C39.9721 25.3759 39.3103 24.3056 38.8552 23.1105C38.4001 21.9166 38.1719 20.7076 38.1719 19.486C38.1719 17.9909 38.4177 16.6104 38.9094 15.3434C39.401 14.0752 40.0894 12.9809 40.9756 12.0606C41.8594 11.1403 42.9221 10.423 44.1614 9.91367C45.4019 9.4031 46.7685 9.14844 48.2649 9.14844C49.5407 9.14844 50.7951 9.39427 52.0243 9.88594C53.2559 10.3789 54.2632 11.1365 55.0474 12.1564L52.8588 13.8256V13.823Z" fill="#1E1E1E"/>
<path d="M58.9023 9.64062H71.402V12.1015H61.5283V17.8741H70.72V20.335H61.5283V26.5439H71.8949V29.006H58.9036V9.64062H58.9023Z" fill="#1E1E1E"/>
<path d="M101.188 9.64062V21.5112C101.188 22.1126 101.27 22.7379 101.434 23.3846C101.598 24.0326 101.872 24.6289 102.255 25.176C102.638 25.7232 103.14 26.1707 103.76 26.5161C104.379 26.8615 105.146 27.0355 106.057 27.0355C106.969 27.0355 107.735 26.8628 108.355 26.5161C108.974 26.1707 109.476 25.7219 109.859 25.176C110.244 24.6289 110.518 24.0326 110.681 23.3846C110.845 22.7366 110.927 22.1126 110.927 21.5112V9.64062H113.553V21.9209C113.553 23.0518 113.362 24.078 112.978 24.9983C112.595 25.9186 112.067 26.7178 111.392 27.3923C110.717 28.068 109.925 28.5862 109.012 28.9518C108.101 29.3161 107.116 29.4989 106.057 29.4989C104.998 29.4989 104.016 29.3161 103.103 28.9518C102.192 28.5862 101.398 28.068 100.723 27.3923C100.049 26.7178 99.5206 25.9198 99.1374 24.9983C98.7541 24.0792 98.5625 23.0518 98.5625 21.9209V9.64062H101.188Z" fill="#1E1E1E"/>
<path d="M118.449 9.64062H130.949V12.1015H121.075V17.8741H130.267V20.335H121.075V26.5439H131.442V29.006H118.45V9.64062H118.449Z" fill="#1E1E1E"/>
<path d="M135.434 9.64062H138.879L149.547 25.5593H149.601V9.64062H152.226V29.006H148.89L138.113 13.0861H138.058V29.006H135.434V9.64062Z" fill="#1E1E1E"/>
<path d="M170.964 13.823C170.417 13.112 169.724 12.5649 168.885 12.1816C168.046 11.7984 167.18 11.6068 166.287 11.6068C165.193 11.6068 164.203 11.811 163.32 12.222C162.435 12.633 161.678 13.1927 161.049 13.905C160.421 14.616 159.932 15.4506 159.587 16.4074C159.24 17.3656 159.066 18.3905 159.066 19.4848C159.066 20.5059 159.23 21.4729 159.558 22.3843C159.885 23.2958 160.361 24.0976 160.98 24.791C161.6 25.4844 162.358 26.0315 163.25 26.4324C164.143 26.8346 165.155 27.0337 166.286 27.0337C167.417 27.0337 168.375 26.8056 169.213 26.3505C170.052 25.8953 170.763 25.2562 171.346 24.4367L173.563 26.1046C173.416 26.3051 173.162 26.5925 172.797 26.9669C172.432 27.3413 171.949 27.7145 171.348 28.0877C170.746 28.4621 170.021 28.7899 169.174 29.0735C168.326 29.3559 167.345 29.4971 166.233 29.4971C164.701 29.4971 163.321 29.2046 162.089 28.6222C160.859 28.0385 159.81 27.2733 158.944 26.324C158.078 25.3759 157.416 24.3056 156.961 23.1105C156.506 21.9166 156.277 20.7076 156.277 19.486C156.277 17.9909 156.523 16.6104 157.015 15.3434C157.507 14.0752 158.195 12.9809 159.081 12.0606C159.965 11.1403 161.028 10.423 162.267 9.91367C163.507 9.4031 164.874 9.14844 166.37 9.14844C167.646 9.14844 168.901 9.39427 170.13 9.88594C171.361 10.3789 172.369 11.1365 173.153 12.1564L170.964 13.8256V13.823Z" fill="#1E1E1E"/>
<path d="M177.008 9.64062H189.507V12.1015H179.634V17.8741H188.825V20.335H179.634V26.5439H190V29.006H177.009V9.64062H177.008Z" fill="#1E1E1E"/>
<path d="M92.5979 25.9332C93.2182 25.1679 93.7275 24.3069 94.117 23.3425C94.6188 22.1032 94.8696 20.7631 94.8696 19.3221C94.8696 17.8812 94.6175 16.5411 94.117 15.3018C93.6153 14.0626 92.9232 12.9872 92.0382 12.0745C91.1532 11.163 90.0904 10.4469 88.8524 9.92754C87.6119 9.40688 86.2541 9.14844 84.7766 9.14844C83.2991 9.14844 81.9401 9.40814 80.7008 9.92754C79.4591 10.4469 78.3988 11.163 77.5138 12.0745C76.6301 12.986 75.9367 14.0626 75.435 15.3018C74.9332 16.5423 74.6836 17.8824 74.6836 19.3221C74.6836 20.7618 74.9345 22.1045 75.435 23.3425C75.9367 24.583 76.6288 25.6583 77.5138 26.5711C78.3988 27.4825 79.4603 28.1974 80.7008 28.718C81.9401 29.2387 83.2978 29.4971 84.7766 29.4971C86.2554 29.4971 87.6119 29.2374 88.8524 28.718C89.6429 28.3865 90.3526 27.9666 90.9994 27.475C91.7785 28.2364 93.522 30.0329 95.0915 31.6794L96.6939 30.1501C94.5104 27.8608 93.3127 26.6139 92.5979 25.9332ZM87.7846 26.4211C86.892 26.8308 85.8885 27.035 84.7766 27.035C83.6647 27.035 82.6599 26.8308 81.7674 26.4211C80.8748 26.0101 80.1083 25.4592 79.4704 24.7658C78.8325 24.0724 78.3396 23.2567 77.9941 22.3175C77.6475 21.3783 77.4735 20.3799 77.4735 19.3221C77.4735 18.2644 77.6462 17.2672 77.9941 16.328C78.3396 15.3876 78.8325 14.5732 79.4704 13.8798C80.1083 13.1864 80.8748 12.6355 81.7674 12.2245C82.6599 11.8135 83.6634 11.6093 84.7766 11.6093C85.8898 11.6093 86.892 11.8135 87.7846 12.2245C88.6772 12.6355 89.4437 13.1864 90.0816 13.8798C90.7195 14.5732 91.2124 15.3888 91.5591 16.328C91.9045 17.2672 92.0785 18.2657 92.0785 19.3221C92.0785 20.3786 91.9058 21.3783 91.5591 22.3175C91.2124 23.258 90.7195 24.0724 90.0816 24.7658C89.4424 25.4592 88.6772 26.0101 87.7846 26.4211Z" fill="#1E1E1E"/>
<path d="M30.0635 24.212V13.0234L0.0138675 31.1243L0 31.1331V42.3066L0.0138675 42.3141L30.0635 24.212Z" fill="#00BBD3"/>
<path d="M0 0V11.1886L12.5841 18.7703L21.8716 13.1754L0 0Z" fill="#00BBD3"/>
</g>
<defs>
<clipPath id="clip0_689_380671">
<rect width="190" height="42.311" fill="white"/>
</clipPath>
</defs>
</svg>
