<svg width="248" height="42" viewBox="0 0 248 42" fill="none" xmlns="http://www.w3.org/2000/svg">
<g clip-path="url(#clip0_1201_70096)">
<path d="M31.8699 10.1126C34.2276 12.4777 34.1463 15.8214 33.9024 17.6155C33.4959 20.3883 32.2764 23.3243 30.3252 25.8524H21.4634L25.9349 30.2555C22.8455 32.6205 19.2683 33.9254 16.0162 33.9254C14.3089 33.9254 11.9512 33.5176 10.1626 31.805C7.80487 29.44 7.88617 26.0963 8.13007 24.2205C8.61788 20.5506 10.6504 16.6361 13.7398 13.537C17.3171 9.9487 21.9512 7.82831 26.0975 7.82831C26.7479 7.91068 29.7561 7.91068 31.8699 10.1126ZM34.878 30.3379L37.9674 33.4369C40.5691 29.9301 42.0325 25.6078 42.0325 20.9592C42.0325 17.6971 41.3008 14.6796 39.9999 11.9068C39.9999 11.9068 39.9999 11.8252 39.9186 11.8252C39.8373 11.8252 39.8373 11.8252 39.8373 11.9068C41.2195 17.6971 39.4308 24.6291 34.878 30.3379ZM1.95122 29.6854C1.95122 29.767 2.03252 29.767 2.03252 29.767L2.11382 29.6854C0.650406 23.2427 3.17073 15.332 9.26828 9.21553C14.2276 4.24078 20.4065 1.63107 26.0162 1.63107C27.317 1.63107 28.5365 1.79417 29.6748 2.03883C29.7561 2.03883 29.7561 2.03883 29.7561 1.95728C29.7561 1.87573 29.7561 1.87573 29.6748 1.87573C26.9918 0.652427 24.065 0 20.9756 0C9.34958 0 0 9.37864 0 21.0408C0.0813007 24.1398 0.731706 27.0757 1.95122 29.6854ZM21.0569 42C25.691 42 30 40.4505 33.4959 37.9223L30.4065 34.8233C25.9349 38.4108 20.7317 40.2874 16.0162 40.2874C14.6341 40.2874 13.3333 40.1243 12.1138 39.7972C12.0325 39.7972 12.0325 39.7972 12.0325 39.8796C12.0325 39.8796 12.0325 39.9612 12.1138 39.9612C14.7154 41.266 17.8049 42 21.0569 42Z" fill="#35792A"/>
<path d="M78.9134 32.2868C78.9134 34.2068 77.7681 35.3542 76.1316 35.3542C74.4494 35.3542 73.4917 34.2538 73.4917 32.3337V25.3087H70.663V33.1769C70.663 36.0564 72.2761 37.9308 75.0566 37.9308C76.9745 37.9308 78.1198 36.9231 78.9134 35.7523V37.6724H81.7421V25.3087H78.9134V32.2868ZM115.7 27.7431L113.271 25.3087H111.668V21.9137H108.841V34.2538C108.841 36.9701 110.313 37.8838 112.395 37.8838C113.445 37.8838 114.239 37.6489 114.942 37.2508V34.9326C114.381 35.2132 113.82 35.3542 113.187 35.3542C112.228 35.3542 111.668 34.9091 111.668 33.8075V27.7431H115.7ZM68.117 29.453C68.117 24.8167 64.6119 21 59.5865 21C54.561 21 51.0078 24.8636 51.0078 29.5C51.0078 34.1364 54.5141 37.953 59.5396 37.953C61.455 37.953 63.1396 37.3682 64.5182 36.4088L65.9522 37.6897H70.2113L66.457 34.511C67.5098 33.083 68.117 31.3261 68.117 29.453ZM64.2602 32.5909H60.1369L62.3917 34.511C61.6203 35.0031 60.6614 35.3072 59.5865 35.3072C56.3369 35.3072 54.0229 32.6614 54.0229 29.453C54.0229 26.2459 56.29 23.6471 59.5396 23.6471C62.7891 23.6471 65.1019 26.2929 65.1019 29.5C65.1019 30.6486 64.8218 31.7242 64.2602 32.5909ZM103.023 30.3655C101.574 29.8993 100.241 29.5235 100.241 28.6345V28.5876C100.241 27.8606 100.873 27.345 101.972 27.345C102.838 27.345 103.868 27.664 104.884 28.1969L106.575 26.5031C105.266 25.6364 103.584 25.0973 102.043 25.0973C99.5868 25.0973 97.6467 26.5265 97.6467 28.8682V28.914C97.6467 31.2791 99.6818 32.0284 101.505 32.5452C102.952 32.9903 104.262 33.3154 104.262 34.2761V34.3231C104.262 35.1428 103.561 35.6583 102.345 35.6583C101.204 35.6583 99.9089 35.233 98.6858 34.4059L97.0407 36.054L97.0395 36.0564C98.5822 37.2743 100.522 37.9073 102.275 37.9073C104.847 37.9073 106.856 36.619 106.856 34.0201V33.9732C106.856 31.7489 104.823 30.928 103.023 30.3655ZM89.8468 25.0503C86.3171 25.0503 83.8155 27.9545 83.8155 31.514C83.8155 35.3542 86.575 37.953 90.1516 37.953C92.3633 37.953 93.9516 37.0826 95.1142 35.735L93.5431 34.1623L93.5394 34.1599C92.5583 35.1205 91.5771 35.6348 90.1985 35.6348C88.3757 35.6348 86.9724 34.511 86.6454 32.4982H95.7152C95.7374 32.2163 95.7609 31.9826 95.7609 31.7242C95.7609 28.1412 93.7739 25.0503 89.8468 25.0503ZM86.6479 30.4705C86.9478 28.6345 88.1424 27.3697 89.8233 27.3697C91.64 27.3697 92.7039 28.7186 92.9347 30.4705H86.6479ZM125.557 21.9161H120.338V37.618H125.557C130.484 37.618 133.887 34.1871 133.887 29.7683V29.7225C133.887 25.3025 130.484 21.9161 125.557 21.9161ZM132.677 29.8116C132.677 33.5577 129.925 36.5423 125.557 36.5423H121.504V22.9918H125.557C129.925 22.9918 132.677 26.0444 132.677 29.7683V29.8116ZM146.772 25.9974C145.204 25.9974 143.973 26.4017 142.718 26.9852L143.123 27.9508C144.174 27.4105 145.316 27.0297 146.706 27.0297C149.056 27.0297 150.467 28.2191 150.467 30.5299V31.0232C149.369 30.7314 148.272 30.5299 146.684 30.5299C143.728 30.5299 141.69 31.8751 141.69 34.2538V34.2983C141.69 36.6783 143.973 37.8875 146.1 37.8875C148.272 37.8875 149.684 36.8106 150.467 35.7115V37.618H151.542V30.4866C151.542 27.5243 149.705 25.9974 146.772 25.9974ZM150.49 33.334C150.49 35.4197 148.495 36.8539 146.168 36.8539C144.42 36.8539 142.853 35.892 142.853 34.2316V34.1871C142.853 32.5934 144.194 31.5165 146.616 31.5165C148.251 31.5165 149.526 31.7848 150.49 32.0333V33.334ZM175.362 25.9084C173.278 25.9084 172.002 26.963 171.241 28.3081V26.1779H170.144V37.618H171.241V30.9997C171.241 28.6222 172.966 26.9172 175.205 26.9172C177.512 26.9172 178.833 28.4676 178.833 30.8204V37.618H179.929V30.6189C179.929 27.8828 178.252 25.9084 175.362 25.9084ZM188.372 25.9084C184.97 25.9084 182.483 28.6902 182.483 31.8973V31.9431C182.483 35.1502 184.947 37.8875 188.33 37.8875C191.732 37.8875 194.217 35.1044 194.217 31.8973V31.8528C194.217 28.6457 191.753 25.9084 188.372 25.9084ZM193.03 31.9431C193.03 34.6359 191.082 36.8539 188.372 36.8539C185.729 36.8539 183.671 34.6569 183.671 31.8973V31.8528C183.671 29.1612 185.618 26.9395 188.33 26.9395C190.969 26.9395 193.03 29.139 193.03 31.8973V31.9431ZM212.616 27.1855L211.609 26.1779H208.627V22.522H207.529V34.6804C207.529 36.8539 208.964 37.8207 210.733 37.8207C211.448 37.8207 212.01 37.686 212.59 37.4164V36.3841C211.942 36.6783 211.472 36.7871 210.91 36.7871C209.59 36.7871 208.627 36.2036 208.627 34.5679V27.1855H212.616ZM165.069 28.4676C164.128 27.1188 162.583 25.9084 160.298 25.9084C157.545 25.9084 154.812 28.0386 154.812 31.3372V31.3817C154.812 34.6569 157.545 36.7649 160.298 36.7649C162.561 36.7649 164.083 35.5335 165.069 34.1191V35.7783C165.069 38.7183 163.21 40.2205 160.59 40.2205C158.968 40.2205 157.453 39.6938 156.122 38.7084L155.331 39.5034C156.896 40.6693 158.665 41.2504 160.568 41.2504C163.814 41.2504 166.165 39.3229 166.165 35.8463V26.1779H165.069V28.4676ZM165.135 31.3595C165.135 33.962 162.784 35.7115 160.41 35.7115C158.059 35.7115 155.999 33.9163 155.999 31.3372V31.2927C155.999 28.6222 158.016 26.963 160.41 26.963C162.784 26.963 165.135 28.6679 165.135 31.3137V31.3595ZM237.503 31.247C235.87 30.7747 234.325 30.3049 234.325 29.0265V28.9807C234.325 27.8371 235.353 26.9852 236.922 26.9852C238.053 26.9852 239.22 27.3809 240.224 27.9991L241.016 27.2078C239.874 26.4462 238.33 25.9529 236.966 25.9529C234.749 25.9529 233.204 27.2758 233.204 29.1155V29.1612C233.204 31.2025 235.265 31.7638 237.125 32.3016C238.711 32.7516 240.146 33.2437 240.146 34.5901V34.6359C240.146 35.9575 238.937 36.8106 237.392 36.8106C235.987 36.8106 234.647 36.3037 233.426 35.4024L232.646 36.1838C233.856 37.1704 235.669 37.843 237.325 37.843C239.519 37.843 241.265 36.5423 241.265 34.5011V34.4553C241.265 32.4364 239.339 31.7638 237.503 31.247ZM200.845 31.247C199.208 30.7747 197.663 30.3049 197.663 29.0265V28.9807C197.663 27.8371 198.695 26.9852 200.261 26.9852C201.391 26.9852 202.556 27.3809 203.565 27.9991L204.355 27.2078C203.214 26.4462 201.67 25.9529 200.308 25.9529C198.089 25.9529 196.547 27.2758 196.547 29.1155V29.1612C196.547 31.2025 198.603 31.7638 200.462 32.3016C202.053 32.7516 203.486 33.2437 203.486 34.5901V34.6359C203.486 35.9575 202.277 36.8106 200.734 36.8106C199.327 36.8106 197.985 36.3037 196.764 35.4024L195.984 36.1838C197.194 37.1704 199.009 37.843 200.664 37.843C202.859 37.843 204.605 36.5423 204.605 34.5011V34.4553C204.605 32.4364 202.679 31.7638 200.845 31.247ZM226.024 36.8539C223.401 36.8539 221.319 34.6569 221.319 31.8973V31.8528C221.319 29.1155 223.333 26.9395 225.934 26.9395C227.627 26.9395 228.745 27.8074 229.729 28.8126L230.522 28.0176C229.447 26.895 228.103 25.9084 225.957 25.9084C222.684 25.9084 220.132 28.6902 220.132 31.8973V31.9431C220.132 35.1502 222.663 37.8875 225.957 37.8875C228.034 37.8875 229.41 36.9664 230.566 35.667L229.85 34.9511C228.89 36.0243 227.633 36.8539 226.024 36.8539ZM137.426 37.618H138.524V26.1767H137.426V37.618ZM137.293 23.2836H138.66V21.9161H137.293V23.2836ZM215.81 23.2836H217.176V21.9161H215.81V23.2836ZM215.945 37.618H217.042V26.1767H215.945V37.618ZM246.284 22.522L245.475 24.5706L244.645 22.522H243.911V25.5041H244.44V23.5111L245.227 25.4633L245.243 25.5041H245.653L246.444 23.5148V25.5041H247.015V22.522H246.284ZM241.236 23.014H242.094V25.5041H242.684V23.014H243.542V22.522H241.236V23.014Z" fill="#35792A"/>
</g>
<defs>
<clipPath id="clip0_1201_70096">
<rect width="247.014" height="42" fill="white"/>
</clipPath>
</defs>
</svg>
