<svg width="248" height="42" viewBox="0 0 248 42" fill="none" xmlns="http://www.w3.org/2000/svg">
<path d="M31.9011 10.1673C34.2588 12.5324 34.1775 15.876 33.9336 17.6702C33.5271 20.443 32.3076 23.379 30.3564 25.9071H21.4946L25.9662 30.3102C22.8767 32.6752 19.2995 33.9801 16.0475 33.9801C14.3402 33.9801 11.9825 33.5723 10.1938 31.8597C7.83612 29.4946 7.91742 26.151 8.16132 24.2752C8.64913 20.6053 10.6816 16.6908 13.7711 13.5917C17.3483 10.0034 21.9824 7.883 26.1288 7.883C26.7792 7.96537 29.7873 7.96537 31.9011 10.1673ZM34.9093 30.3926L37.9987 33.4916C40.6003 29.9848 42.0637 25.6625 42.0637 21.0139C42.0637 17.7518 41.332 14.7343 40.0312 11.9615C40.0312 11.9615 40.0312 11.8799 39.9499 11.8799C39.8686 11.8799 39.8686 11.8799 39.8686 11.9615C41.2507 17.7518 39.4621 24.6838 34.9093 30.3926ZM1.98247 29.7401C1.98247 29.8217 2.06377 29.8217 2.06377 29.8217L2.14507 29.7401C0.681656 23.2974 3.20198 15.3867 9.29953 9.27022C14.2589 4.29546 20.4377 1.68576 26.0475 1.68576C27.3483 1.68576 28.5678 1.84886 29.706 2.09352C29.7873 2.09352 29.7873 2.09352 29.7873 2.01197C29.7873 1.93042 29.7873 1.93042 29.706 1.93042C27.0231 0.707115 24.0963 0.0546875 21.0068 0.0546875C9.38083 0.0546875 0.03125 9.43333 0.03125 21.0955C0.112551 24.1945 0.762956 27.1304 1.98247 29.7401ZM21.0881 42.0547C25.7223 42.0547 30.0312 40.5052 33.5271 37.977L30.4377 34.878C25.9662 38.4655 20.7629 40.3421 16.0475 40.3421C14.6654 40.3421 13.3646 40.179 12.1451 39.8519C12.0638 39.8519 12.0638 39.8519 12.0638 39.9343C12.0638 39.9343 12.0638 40.0159 12.1451 40.0159C14.7467 41.3207 17.8361 42.0547 21.0881 42.0547Z" fill="#35792A"/>
<path d="M78.9446 32.3415C78.9446 34.2615 77.7993 35.4089 76.1628 35.4089C74.4807 35.4089 73.523 34.3085 73.523 32.3884V25.3634H70.6943V33.2316C70.6943 36.1111 72.3073 37.9855 75.0879 37.9855C77.0058 37.9855 78.1511 36.9778 78.9446 35.807V37.7271H81.7733V25.3634H78.9446V32.3415ZM115.731 27.7978L113.302 25.3634H111.699V21.9684H108.872V34.3085C108.872 37.0248 110.344 37.9385 112.426 37.9385C113.476 37.9385 114.27 37.7036 114.973 37.3055V34.9873C114.412 35.2679 113.852 35.4089 113.218 35.4089C112.26 35.4089 111.699 34.9638 111.699 33.8622V27.7978H115.731ZM68.1482 29.5077C68.1482 24.8713 64.6432 21.0547 59.6177 21.0547C54.5922 21.0547 51.0391 24.9183 51.0391 29.5547C51.0391 34.1911 54.5453 38.0077 59.5708 38.0077C61.4862 38.0077 63.1708 37.4229 64.5494 36.4635L65.9835 37.7444H70.2426L66.4883 34.5657C67.541 33.1377 68.1482 31.3808 68.1482 29.5077ZM64.2915 32.6456H60.1681L62.4229 34.5657C61.6516 35.0577 60.6927 35.3619 59.6177 35.3619C56.3682 35.3619 54.0541 32.7161 54.0541 29.5077C54.0541 26.3006 56.3213 23.7017 59.5708 23.7017C62.8203 23.7017 65.1332 26.3476 65.1332 29.5547C65.1332 30.7033 64.853 31.7789 64.2915 32.6456ZM103.054 30.4201C101.605 29.954 100.272 29.5782 100.272 28.6892V28.6423C100.272 27.9153 100.904 27.3997 102.004 27.3997C102.869 27.3997 103.899 27.7187 104.915 28.2516L106.606 26.5577C105.298 25.6911 103.615 25.152 102.074 25.152C99.618 25.152 97.6779 26.5812 97.6779 28.9229V28.9687C97.6779 31.3338 99.7131 32.0831 101.536 32.5999C102.984 33.0449 104.293 33.3701 104.293 34.3308V34.3777C104.293 35.1975 103.592 35.713 102.376 35.713C101.235 35.713 99.9402 35.2877 98.7171 34.4606L97.072 36.1087L97.0707 36.1111C98.6134 37.3289 100.554 37.962 102.306 37.962C104.878 37.962 106.887 36.6737 106.887 34.0748V34.0279C106.887 31.8036 104.855 30.9827 103.054 30.4201ZM89.878 25.105C86.3484 25.105 83.8467 28.0092 83.8467 31.5687C83.8467 35.4089 86.6063 38.0077 90.1829 38.0077C92.3945 38.0077 93.9829 37.1373 95.1454 35.7897L93.5744 34.217L93.5707 34.2145C92.5895 35.1752 91.6083 35.6895 90.2298 35.6895C88.4069 35.6895 87.0037 34.5657 86.6766 32.5529H95.7465C95.7687 32.271 95.7921 32.0373 95.7921 31.7789C95.7921 28.1959 93.8051 25.105 89.878 25.105ZM86.6791 30.5252C86.979 28.6892 88.1737 27.4244 89.8546 27.4244C91.6713 27.4244 92.7351 28.7733 92.9659 30.5252H86.6791ZM125.588 21.9708H120.369V37.6727H125.588C130.515 37.6727 133.918 34.2417 133.918 29.823V29.7772C133.918 25.3572 130.515 21.9708 125.588 21.9708ZM132.708 29.8663C132.708 33.6124 129.956 36.597 125.588 36.597H121.535V23.0465H125.588C129.956 23.0465 132.708 26.0991 132.708 29.823V29.8663ZM146.804 26.0521C145.235 26.0521 144.005 26.4564 142.749 27.0399L143.154 28.0055C144.206 27.4652 145.347 27.0844 146.737 27.0844C149.087 27.0844 150.499 28.2738 150.499 30.5846V31.0779C149.4 30.7861 148.303 30.5846 146.715 30.5846C143.759 30.5846 141.721 31.9297 141.721 34.3085V34.353C141.721 36.733 144.005 37.9422 146.131 37.9422C148.303 37.9422 149.715 36.8653 150.499 35.7662V37.6727H151.574V30.5413C151.574 27.579 149.736 26.0521 146.804 26.0521ZM150.521 33.3887C150.521 35.4744 148.527 36.9086 146.199 36.9086C144.451 36.9086 142.884 35.9467 142.884 34.2863V34.2417C142.884 32.6481 144.225 31.5712 146.647 31.5712C148.282 31.5712 149.557 31.8395 150.521 32.088V33.3887ZM175.393 25.9631C173.31 25.9631 172.034 27.0177 171.272 28.3628V26.2326H170.175V37.6727H171.272V31.0544C171.272 28.6769 172.997 26.9719 175.236 26.9719C177.543 26.9719 178.865 28.5223 178.865 30.8751V37.6727H179.961V30.6736C179.961 27.9375 178.283 25.9631 175.393 25.9631ZM188.403 25.9631C185.001 25.9631 182.514 28.7449 182.514 31.952V31.9977C182.514 35.2049 184.979 37.9422 188.361 37.9422C191.763 37.9422 194.248 35.1591 194.248 31.952V31.9075C194.248 28.7004 191.784 25.9631 188.403 25.9631ZM193.061 31.9977C193.061 34.6905 191.114 36.9086 188.403 36.9086C185.76 36.9086 183.703 34.7116 183.703 31.952V31.9075C183.703 29.2159 185.649 26.9942 188.361 26.9942C191 26.9942 193.061 29.1937 193.061 31.952V31.9977ZM212.647 27.2402L211.64 26.2326H208.658V22.5767H207.56V34.7351C207.56 36.9086 208.995 37.8754 210.764 37.8754C211.48 37.8754 212.041 37.7407 212.621 37.4711V36.4388C211.973 36.733 211.503 36.8418 210.942 36.8418C209.621 36.8418 208.658 36.2583 208.658 34.6225V27.2402H212.647ZM165.1 28.5223C164.16 27.1735 162.614 25.9631 160.329 25.9631C157.577 25.9631 154.843 28.0933 154.843 31.3919V31.4364C154.843 34.7116 157.577 36.8196 160.329 36.8196C162.592 36.8196 164.114 35.5881 165.1 34.1737V35.8329C165.1 38.773 163.241 40.2752 160.621 40.2752C159 40.2752 157.484 39.7485 156.154 38.7631L155.363 39.5581C156.927 40.724 158.696 41.3051 160.599 41.3051C163.845 41.3051 166.196 39.3776 166.196 35.9009V26.2326H165.1V28.5223ZM165.167 31.4142C165.167 34.0167 162.816 35.7662 160.441 35.7662C158.09 35.7662 156.03 33.971 156.03 31.3919V31.3474C156.03 28.6769 158.047 27.0177 160.441 27.0177C162.816 27.0177 165.167 28.7226 165.167 31.3684V31.4142ZM237.534 31.3017C235.901 30.8294 234.356 30.3596 234.356 29.0812V29.0354C234.356 27.8918 235.384 27.0399 236.953 27.0399C238.085 27.0399 239.251 27.4356 240.255 28.0537L241.048 27.2625C239.905 26.5009 238.361 26.0076 236.997 26.0076C234.781 26.0076 233.236 27.3305 233.236 29.1702V29.2159C233.236 31.2572 235.297 31.8185 237.156 32.3563C238.742 32.8063 240.178 33.2984 240.178 34.6448V34.6905C240.178 36.0122 238.968 36.8653 237.423 36.8653C236.019 36.8653 234.678 36.3584 233.458 35.4571L232.678 36.2385C233.887 37.2251 235.7 37.8977 237.356 37.8977C239.551 37.8977 241.296 36.597 241.296 34.5558V34.51C241.296 32.4911 239.371 31.8185 237.534 31.3017ZM200.876 31.3017C199.239 30.8294 197.694 30.3596 197.694 29.0812V29.0354C197.694 27.8918 198.726 27.0399 200.292 27.0399C201.423 27.0399 202.588 27.4356 203.596 28.0537L204.386 27.2625C203.245 26.5009 201.702 26.0076 200.339 26.0076C198.12 26.0076 196.579 27.3305 196.579 29.1702V29.2159C196.579 31.2572 198.635 31.8185 200.493 32.3563C202.084 32.8063 203.517 33.2984 203.517 34.6448V34.6905C203.517 36.0122 202.309 36.8653 200.765 36.8653C199.358 36.8653 198.016 36.3584 196.796 35.4571L196.016 36.2385C197.225 37.2251 199.041 37.8977 200.696 37.8977C202.89 37.8977 204.636 36.597 204.636 34.5558V34.51C204.636 32.4911 202.71 31.8185 200.876 31.3017ZM226.055 36.9086C223.433 36.9086 221.351 34.7116 221.351 31.952V31.9075C221.351 29.1702 223.365 26.9942 225.965 26.9942C227.658 26.9942 228.776 27.8621 229.76 28.8673L230.554 28.0723C229.479 26.9497 228.135 25.9631 225.989 25.9631C222.716 25.9631 220.163 28.7449 220.163 31.952V31.9977C220.163 35.2049 222.695 37.9422 225.989 37.9422C228.066 37.9422 229.442 37.0211 230.597 35.7217L229.881 35.0058C228.921 36.079 227.665 36.9086 226.055 36.9086ZM137.457 37.6727H138.556V26.2313H137.457V37.6727ZM137.324 23.3383H138.692V21.9708H137.324V23.3383ZM215.841 23.3383H217.207V21.9708H215.841V23.3383ZM215.976 37.6727H217.073V26.2313H215.976V37.6727ZM246.315 22.5767L245.507 24.6253L244.676 22.5767H243.942V25.5588H244.471V23.5657L245.259 25.518L245.275 25.5588H245.684L246.476 23.5695V25.5588H247.046V22.5767H246.315ZM241.267 23.0687H242.125V25.5588H242.715V23.0687H243.573V22.5767H241.267V23.0687Z" fill="#35792A"/>
</svg>
