<svg width="221" height="38" viewBox="0 0 221 38" fill="none" xmlns="http://www.w3.org/2000/svg">
<g clip-path="url(#clip0_689_380663)">
<path d="M28.531 9.39604C30.6396 11.5113 30.5669 14.5018 30.3488 16.1065C29.9852 18.5864 28.8945 21.2122 27.1494 23.4733H19.2237L23.2229 27.4113C20.4598 29.5266 17.2604 30.6936 14.3519 30.6936C12.8249 30.6936 10.7162 30.3289 9.11651 28.7972C7.00782 26.6819 7.08053 23.6914 7.29867 22.0138C7.73495 18.7315 9.55279 15.2305 12.3159 12.4588C15.5153 9.24943 19.6599 7.35301 23.3683 7.35301C23.95 7.42667 26.6404 7.42667 28.531 9.39604ZM31.2213 27.485L33.9845 30.2567C36.3113 27.1203 37.6201 23.2545 37.6201 19.097C37.6201 16.1794 36.9657 13.4806 35.8023 11.0007C35.8023 11.0007 35.8023 10.9278 35.7296 10.9278C35.6569 10.9278 35.6569 10.9278 35.6569 11.0007C36.893 16.1794 35.2933 22.3792 31.2213 27.485ZM1.77246 26.9015C1.77246 26.9744 1.84518 26.9744 1.84518 26.9744L1.91789 26.9015C0.60905 21.1393 2.86316 14.0642 8.31666 8.5937C12.7522 4.14441 18.2784 1.81035 23.2956 1.81035C24.459 1.81035 25.5497 1.95623 26.5677 2.17505C26.6404 2.17505 26.6404 2.17505 26.6404 2.10211C26.6404 2.02917 26.6404 2.02917 26.5677 2.02917C24.1682 0.935077 21.5505 0.351562 18.7874 0.351562C8.38937 0.351562 0.0273438 8.73958 0.0273438 19.1699C0.100057 21.9416 0.681764 24.5674 1.77246 26.9015ZM18.8601 37.9153C23.0047 37.9153 26.8586 36.5295 29.9852 34.2683L27.2221 31.4966C23.2229 34.7052 18.5692 36.3836 14.3519 36.3836C13.1157 36.3836 11.9523 36.2377 10.8616 35.9452C10.7889 35.9452 10.7889 35.9452 10.7889 36.0189C10.7889 36.0189 10.7889 36.0918 10.8616 36.0918C13.1885 37.2589 15.9516 37.9153 18.8601 37.9153Z" fill="#35792A"/>
<path d="M70.6065 29.2274C70.6065 30.9447 69.5821 31.9708 68.1185 31.9708C66.614 31.9708 65.7575 30.9867 65.7575 29.2694V22.9864H63.2276V30.0236C63.2276 32.5989 64.6702 34.2753 67.1571 34.2753C68.8724 34.2753 69.8967 33.3741 70.6065 32.3269V34.0442H73.1364V22.9864H70.6065V29.2274ZM103.507 25.1637L101.335 22.9864H99.9014V19.95H97.3725V30.9867C97.3725 33.4161 98.6894 34.2332 100.551 34.2332C101.491 34.2332 102.201 34.0231 102.83 33.6671V31.5938C102.328 31.8448 101.826 31.9708 101.26 31.9708C100.402 31.9708 99.9014 31.5728 99.9014 30.5875V25.1637H103.507ZM60.9504 26.693C60.9504 22.5463 57.8156 19.1328 53.321 19.1328C48.8263 19.1328 45.6484 22.5884 45.6484 26.735C45.6484 30.8816 48.7843 34.2952 53.279 34.2952C54.9921 34.2952 56.4988 33.7721 57.7317 32.9141L59.0144 34.0596H62.8236L59.4658 31.2167C60.4074 29.9395 60.9504 28.3682 60.9504 26.693ZM57.501 29.4994H53.8133L55.8299 31.2167C55.14 31.6568 54.2824 31.9288 53.321 31.9288C50.4146 31.9288 48.345 29.5625 48.345 26.693C48.345 23.8246 50.3727 21.5003 53.279 21.5003C56.1853 21.5003 58.2538 23.8666 58.2538 26.735C58.2538 27.7623 58.0033 28.7243 57.501 29.4994ZM92.1692 27.509C90.8734 27.0922 89.6813 26.756 89.6813 25.961V25.9189C89.6813 25.2687 90.2464 24.8076 91.2299 24.8076C92.0037 24.8076 92.9253 25.0929 93.8338 25.5695L95.346 24.0546C94.1759 23.2795 92.6715 22.7973 91.2928 22.7973C89.0962 22.7973 87.3611 24.0756 87.3611 26.1699V26.2109C87.3611 28.3262 89.1812 28.9963 90.8116 29.4585C92.1063 29.8566 93.2774 30.1474 93.2774 31.0066V31.0486C93.2774 31.7817 92.6505 32.2429 91.5632 32.2429C90.5422 32.2429 89.3843 31.8625 88.2905 31.1227L86.8191 32.5967L86.818 32.5989C88.1978 33.6881 89.9329 34.2543 91.5003 34.2543C93.8006 34.2543 95.5976 33.102 95.5976 30.7777V30.7357C95.5976 28.7464 93.7797 28.0122 92.1692 27.509ZM80.385 22.7553C77.2282 22.7553 74.9908 25.3528 74.9908 28.5363C74.9908 31.9708 77.4589 34.2952 80.6577 34.2952C82.6357 34.2952 84.0563 33.5167 85.0961 32.3114L83.6909 30.9049L83.6876 30.9027C82.8101 31.7618 81.9326 32.2218 80.6996 32.2218C79.0693 32.2218 77.8143 31.2167 77.5218 29.4165H85.6336C85.6535 29.1644 85.6745 28.9554 85.6745 28.7243C85.6745 25.5198 83.8973 22.7553 80.385 22.7553ZM77.524 27.603C77.7922 25.961 78.8607 24.8298 80.3641 24.8298C81.9889 24.8298 82.9403 26.0362 83.1468 27.603H77.524ZM112.324 19.9522H107.656V33.9955H112.324C116.73 33.9955 119.773 30.927 119.773 26.975V26.934C119.773 22.9809 116.73 19.9522 112.324 19.9522ZM118.691 27.0137C118.691 30.3641 116.23 33.0335 112.324 33.0335H108.699V20.9142H112.324C116.23 20.9142 118.691 23.6444 118.691 26.975V27.0137ZM131.298 23.6023C129.895 23.6023 128.794 23.9639 127.672 24.4859L128.034 25.3495C128.974 24.8662 129.995 24.5257 131.238 24.5257C133.34 24.5257 134.603 25.5894 134.603 27.6561V28.0973C133.62 27.8363 132.639 27.6561 131.218 27.6561C128.575 27.6561 126.752 28.8592 126.752 30.9867V31.0265C126.752 33.1551 128.794 34.2366 130.696 34.2366C132.639 34.2366 133.902 33.2734 134.603 32.2904V33.9955H135.564V27.6174C135.564 24.968 133.92 23.6023 131.298 23.6023ZM134.623 30.164C134.623 32.0294 132.839 33.3121 130.757 33.3121C129.194 33.3121 127.792 32.4518 127.792 30.9668V30.927C127.792 29.5016 128.992 28.5385 131.158 28.5385C132.62 28.5385 133.76 28.7785 134.623 29.0007V30.164ZM156.867 23.5227C155.004 23.5227 153.863 24.466 153.182 25.669V23.7638H152.201V33.9955H153.182V28.0763C153.182 25.9499 154.725 24.425 156.727 24.425C158.79 24.425 159.972 25.8117 159.972 27.916V33.9955H160.953V27.7357C160.953 25.2886 159.452 23.5227 156.867 23.5227ZM168.504 23.5227C165.46 23.5227 163.236 26.0107 163.236 28.8791V28.92C163.236 31.7884 165.441 34.2366 168.466 34.2366C171.508 34.2366 173.731 31.7475 173.731 28.8791V28.8393C173.731 25.9709 171.527 23.5227 168.504 23.5227ZM172.669 28.92C172.669 31.3284 170.928 33.3121 168.504 33.3121C166.139 33.3121 164.299 31.3472 164.299 28.8791V28.8393C164.299 26.432 166.04 24.4449 168.466 24.4449C170.826 24.4449 172.669 26.4121 172.669 28.8791V28.92ZM190.187 24.665L189.286 23.7638H186.619V20.494H185.637V31.3682C185.637 33.3121 186.921 34.1768 188.502 34.1768C189.143 34.1768 189.645 34.0563 190.164 33.8153V32.8919C189.584 33.1551 189.164 33.2524 188.661 33.2524C187.48 33.2524 186.619 32.7305 186.619 31.2676V24.665H190.187ZM147.662 25.8117C146.821 24.6053 145.439 23.5227 143.394 23.5227C140.933 23.5227 138.488 25.428 138.488 28.3782V28.418C138.488 31.3472 140.933 33.2325 143.394 33.2325C145.419 33.2325 146.78 32.1312 147.662 30.8662V32.3501C147.662 34.9796 145.999 36.3232 143.656 36.3232C142.206 36.3232 140.85 35.8521 139.66 34.9708L138.953 35.6818C140.352 36.7245 141.934 37.2443 143.636 37.2443C146.539 37.2443 148.642 35.5204 148.642 32.4109V23.7638H147.662V25.8117ZM147.721 28.3981C147.721 30.7257 145.619 32.2904 143.495 32.2904C141.392 32.2904 139.55 30.6848 139.55 28.3782V28.3384C139.55 25.9499 141.353 24.466 143.495 24.466C145.619 24.466 147.721 25.9908 147.721 28.3572V28.3981ZM212.445 28.2975C210.985 27.8751 209.603 27.4549 209.603 26.3115V26.2706C209.603 25.2477 210.522 24.4859 211.925 24.4859C212.937 24.4859 213.98 24.8397 214.879 25.3926L215.587 24.6849C214.565 24.0037 213.184 23.5625 211.965 23.5625C209.982 23.5625 208.6 24.7457 208.6 26.3911V26.432C208.6 28.2576 210.444 28.7597 212.107 29.2407C213.526 29.6432 214.809 30.0833 214.809 31.2875V31.3284C214.809 32.5104 213.727 33.2734 212.346 33.2734C211.089 33.2734 209.891 32.8201 208.799 32.014L208.101 32.7128C209.183 33.5952 210.805 34.1968 212.286 34.1968C214.248 34.1968 215.809 33.0335 215.809 31.2078V31.1669C215.809 29.3612 214.087 28.7597 212.445 28.2975ZM179.659 28.2975C178.195 27.8751 176.813 27.4549 176.813 26.3115V26.2706C176.813 25.2477 177.736 24.4859 179.137 24.4859C180.148 24.4859 181.19 24.8397 182.091 25.3926L182.798 24.6849C181.778 24.0037 180.397 23.5625 179.179 23.5625C177.194 23.5625 175.815 24.7457 175.815 26.3911V26.432C175.815 28.2576 177.654 28.7597 179.316 29.2407C180.739 29.6432 182.021 30.0833 182.021 31.2875V31.3284C182.021 32.5104 180.94 33.2734 179.559 33.2734C178.301 33.2734 177.101 32.8201 176.01 32.014L175.312 32.7128C176.394 33.5952 178.017 34.1968 179.498 34.1968C181.46 34.1968 183.022 33.0335 183.022 31.2078V31.1669C183.022 29.3612 181.299 28.7597 179.659 28.2975ZM202.178 33.3121C199.833 33.3121 197.971 31.3472 197.971 28.8791V28.8393C197.971 26.3911 199.772 24.4449 202.098 24.4449C203.612 24.4449 204.612 25.2212 205.492 26.1202L206.202 25.4092C205.24 24.4051 204.038 23.5227 202.119 23.5227C199.192 23.5227 196.909 26.0107 196.909 28.8791V28.92C196.909 31.7884 199.173 34.2366 202.119 34.2366C203.977 34.2366 205.207 33.4128 206.24 32.2506L205.6 31.6103C204.741 32.5702 203.618 33.3121 202.178 33.3121ZM122.939 33.9955H123.921V23.7627H122.939V33.9955ZM122.82 21.1752H124.043V19.9522H122.82V21.1752ZM193.043 21.1752H194.265V19.9522H193.043V21.1752ZM193.164 33.9955H194.145V23.7627H193.164V33.9955ZM220.298 20.494L219.575 22.3263L218.833 20.494H218.176V23.1611H218.649V21.3786L219.354 23.1247L219.368 23.1611H219.734L220.442 21.382V23.1611H220.952V20.494H220.298ZM215.784 20.9341H216.551V23.1611H217.079V20.9341H217.846V20.494H215.784V20.9341Z" fill="#35792A"/>
</g>
<defs>
<clipPath id="clip0_689_380663">
<rect width="221" height="37.5637" fill="white" transform="translate(0 0.3125)"/>
</clipPath>
</defs>
</svg>
